<?xml version="1.0" standalone="no"?>
<!DOCTYPE svg PUBLIC "-//W3C//DTD SVG 20010904//EN"
 "http://www.w3.org/TR/2001/REC-SVG-20010904/DTD/svg10.dtd">
<svg version="1.0" xmlns="http://www.w3.org/2000/svg"
 width="274.000000pt" height="149.000000pt" viewBox="0 0 274.000000 149.000000"
 preserveAspectRatio="xMidYMid meet">

<g transform="translate(0.000000,149.000000) scale(0.100000,-0.100000)"
fill="#000000" stroke="none">
<path d="M1173 1388 c-33 -35 -64 -73 -67 -85 -7 -22 -7 -22 -59 11 -29 18
-71 43 -95 55 -53 27 -61 23 -147 -67 -58 -61 -66 -66 -84 -54 -11 6 -36 12
-55 12 -26 0 -36 5 -41 19 -10 32 -73 81 -103 81 -37 0 -72 -24 -167 -110
-112 -102 -150 -132 -230 -180 -38 -23 -82 -54 -97 -68 -27 -24 -28 -30 -28
-118 l0 -93 38 -7 c49 -10 87 -10 147 -1 31 4 42 3 30 -2 -11 -5 -50 -40 -87
-79 -55 -57 -68 -76 -68 -102 0 -43 48 -131 121 -221 33 -41 77 -95 97 -121
l36 -47 185 95 186 95 29 -33 c164 -189 191 -213 223 -201 25 10 211 186 240
227 l20 29 79 -67 c43 -36 112 -83 153 -103 94 -48 148 -49 241 -7 178 80 539
415 623 579 40 79 14 230 -47 271 -23 14 -41 16 -122 10 l-96 -7 16 23 c19 27
21 87 3 112 -23 31 -91 38 -244 25 -316 -26 -405 -5 -508 121 -32 39 -58 70
-59 70 -1 0 -29 -28 -63 -62z m215 -146 c78 -34 155 -41 380 -35 187 5 214 4
237 -11 24 -16 25 -18 10 -46 -8 -16 -40 -48 -70 -71 -31 -23 -54 -43 -52 -45
1 -2 45 6 97 16 52 11 119 20 148 20 46 0 58 -4 82 -28 15 -16 34 -47 40 -69
34 -114 -88 -290 -321 -463 -212 -157 -316 -155 -504 10 -44 39 -81 74 -83 80
-2 5 43 32 100 61 163 81 182 106 180 242 -1 96 -6 123 -25 130 -7 2 -45 0
-86 -6 -64 -9 -78 -8 -107 8 -59 32 -126 157 -141 263 l-6 46 36 -41 c21 -22
59 -50 85 -61z m-397 37 c95 -57 104 -65 114 -96 5 -20 3 -23 -22 -23 -40 0
-53 -17 -53 -67 0 -74 61 -183 158 -284 45 -47 82 -92 82 -98 0 -21 -80 -174
-105 -201 -12 -14 -21 -29 -19 -35 6 -17 -70 -110 -93 -113 -35 -5 -141 131
-234 303 -135 247 -137 251 -143 235 -3 -8 -14 -67 -25 -130 l-19 -114 37 42
c20 23 42 42 49 42 17 0 62 -97 62 -132 0 -19 -10 -35 -33 -54 -43 -34 -289
-147 -298 -137 -4 5 -46 55 -94 113 -91 110 -130 173 -121 196 8 21 104 66
134 62 23 -3 29 -10 39 -52 7 -26 14 -50 17 -53 2 -3 7 25 11 62 9 77 -14 188
-43 218 -15 15 -23 16 -46 7 -51 -19 -237 -5 -236 19 0 3 24 20 53 38 29 18
97 70 152 117 55 47 124 104 154 128 l53 42 28 -31 c16 -18 36 -57 46 -87 10
-31 22 -56 26 -56 5 0 20 11 33 25 l23 26 24 -33 c13 -18 51 -86 83 -151 60
-119 107 -188 120 -175 4 3 1 41 -5 83 -20 134 -37 320 -32 356 4 34 18 59 32
59 3 0 45 -23 91 -51z m162 -282 c15 -39 35 -81 45 -93 45 -53 107 -70 196
-53 71 13 76 8 76 -71 0 -53 -2 -57 -32 -71 -18 -8 -59 -30 -90 -48 l-56 -32
19 52 20 52 -74 76 c-128 131 -182 216 -157 246 7 8 15 15 19 15 3 0 18 -33
34 -73z"/>
<path d="M1707 1123 c-3 -5 -3 -28 0 -52 6 -42 7 -43 36 -37 51 10 79 34 75
64 -3 25 -7 27 -55 30 -28 2 -54 -1 -56 -5z"/>
<path d="M1817 911 c-77 -31 -75 -26 -59 -153 8 -62 16 -115 18 -117 2 -2 28
9 59 23 67 33 119 97 141 173 23 81 19 88 -51 90 -40 2 -76 -4 -108 -16z"/>
</g>
</svg>
