<?xml version="1.0" encoding="iso-8859-1"?>
<!-- Generator: Adobe Illustrator 19.0.0, SVG Export Plug-In . SVG Version: 6.00 Build 0)  -->
<svg version="1.1" id="Layer_1" xmlns="http://www.w3.org/2000/svg" xmlns:xlink="http://www.w3.org/1999/xlink" x="0px" y="0px"
	 viewBox="0 0 504.4 504.4" style="enable-background:new 0 0 504.4 504.4;" xml:space="preserve">
<path style="fill:#ACD9EA;" d="M498.2,198.4c0-4.4-3.6-8-8-8h-480c-4.4,0-8,3.6-8,8v28.4c0,4.4,3.6,8,8,8h480c4.4,0,8-3.6,8-8V198.4
	z"/>
<path style="fill:#73BADD;" d="M434.2,234.4h-412V458c0,21.6,16.4,40.4,38,40.4h382c21.6,0,40-18.8,40-40.4V234.4h-12.4H434.2z
	 M118.2,454c0,6.4-5.6,12-12,12s-12-5.2-12-12V280.8c0-6.4,5.6-12,12-12s12,5.2,12,12V454z M190.2,454c0,6.4-3.6,12-10,12
	s-10-5.2-10-12V280.8c0-6.4,3.6-12,10-12s10,5.2,10,12V454z M266.2,454c0,6.4-5.6,12-12,12s-12-5.2-12-12V280.8c0-6.4,5.6-12,12-12
	s12,5.2,12,12V454z M342.2,454c0,6.4-5.6,12-12,12s-12-5.2-12-12V280.8c0-6.4,5.6-12,12-12s12,5.2,12,12V454z M418.2,454
	c0,6.4-5.6,12-12,12s-12-5.2-12-12V280.8c0-6.4,5.6-12,12-12s12,5.2,12,12V454z"/>
<g>
	<path style="fill:#F4EFEF;" d="M254.2,265.2c-6.4,0-12,5.2-12,12v173.2c0,6.4,5.6,12,12,12s12-5.2,12-12V277.2
		C266.2,270.4,260.6,265.2,254.2,265.2z"/>
	<path style="fill:#F4EFEF;" d="M172.2,265.2c-6.4,0-10,5.2-10,12v173.2c0,6.4,3.6,12,10,12s10-5.2,10-12V277.2
		C182.2,270.4,178.6,265.2,172.2,265.2z"/>
	<path style="fill:#F4EFEF;" d="M106.2,265.2c-6.4,0-12,5.2-12,12v173.2c0,6.4,5.6,12,12,12s12-5.2,12-12V277.2
		C118.2,270.4,112.6,265.2,106.2,265.2z"/>
	<path style="fill:#F4EFEF;" d="M406.2,265.2c-6.4,0-12,5.2-12,12v173.2c0,6.4,5.6,12,12,12s12-5.2,12-12V277.2
		C418.2,270.4,412.6,265.2,406.2,265.2z"/>
	<path style="fill:#F4EFEF;" d="M330.2,265.2c-6.4,0-12,5.2-12,12v173.2c0,6.4,5.6,12,12,12s12-5.2,12-12V277.2
		C342.2,270.4,336.6,265.2,330.2,265.2z"/>
</g>
<path style="fill:#33A5D2;" d="M266.2,214.4V9.2c0-4.4-4.8-6.8-9.2-6.8h-15.6c-4.4,0-7.2,2.4-7.2,6.8v205.2H266.2z"/>
<path d="M442.2,240.4H13c-6.8,0-12.8-8-12.8-14.8v-27.2c0-6,5.2-10,12.8-10h221.2c2.4,0,4,1.6,4,4s-1.6,4-4,4H13
	c-1.2,0-4.8,0.4-4.8,2V226c0,2.4,3.2,6.8,4.8,6.8h429.2c2.4,0,4,1.6,4,4S444.6,240.4,442.2,240.4z"/>
<path d="M493.4,240.4h-11.2c-2.4,0-4-1.6-4-4s1.6-4,4-4h11.2c0.8,0,2.8-3.2,2.8-6.8v-27.2c0-1.6,0-2-2.8-2H274.2c-2.4,0-4-1.6-4-4
	s1.6-4,4-4h219.2c10,0,10.8,6.8,10.8,10V226C504.2,232,500.6,240.4,493.4,240.4z"/>
<path d="M252.2,466c-8.8,0-16-7.2-16-16V276.8c0-8.8,7.2-16,16-16s16,7.2,16,16V450C268.2,458.8,261,466,252.2,466z M252.2,269.2
	c-4.4,0-8,3.6-8,8v173.2c0,4.4,3.6,8,8,8s8-3.6,8-8V277.2C260.2,272.8,256.6,269.2,252.2,269.2z"/>
<path d="M176.2,466c-10,0-16-6-16-16V276.8c0-10,6-16,16-16s16,6,16,16V450C192.2,460,186.2,466,176.2,466z M176.2,269.2
	c-5.6,0-8,2.4-8,8v173.2c0,5.6,2.4,8,8,8s8-2.4,8-8V277.2C184.2,271.6,181.8,269.2,176.2,269.2z"/>
<path d="M104.2,466c-8.8,0-16-7.2-16-16V276.8c0-8.8,7.2-16,16-16s16,7.2,16,16V450C120.2,458.8,113,466,104.2,466z M104.2,269.2
	c-4.4,0-8,3.6-8,8v173.2c0,4.4,3.6,8,8,8s8-3.6,8-8V277.2C112.2,272.8,108.6,269.2,104.2,269.2z"/>
<path d="M404.2,466c-8.8,0-16-7.2-16-16V276.8c0-8.8,7.2-16,16-16s16,7.2,16,16V450C420.2,458.8,413,466,404.2,466z M404.2,269.2
	c-4.4,0-8,3.6-8,8v173.2c0,4.4,3.6,8,8,8s8-3.6,8-8V277.2C412.2,272.8,408.6,269.2,404.2,269.2z"/>
<path d="M328.2,466c-8.8,0-16-7.2-16-16V276.8c0-8.8,7.2-16,16-16s16,7.2,16,16V450C344.2,458.8,337,466,328.2,466z M328.2,269.2
	c-4.4,0-8,3.6-8,8v173.2c0,4.4,3.6,8,8,8s8-3.6,8-8V277.2C336.2,272.8,332.6,269.2,328.2,269.2z"/>
<path d="M446.2,504.4h-382c-23.2,0-48-26-48-50.4V238.4c0-2.4,1.6-4,4-4s4,1.6,4,4V454c0,20,20.8,42.4,40,42.4h382
	c18.4,0,30-22,30-42.4V238.4c0-2.4,1.6-4,4-4s4,1.6,4,4V454C484.2,478.8,469.8,504.4,446.2,504.4z"/>
<path d="M260.2,220.4h-16.4c-6.4,0-12-5.2-12-12V12c0-6.4,5.2-12,12-12h16.4c6.4,0,12,5.2,12,12v196.4
	C272.2,215.2,267,220.4,260.2,220.4z M244.2,8.4c-2,0-4,1.6-4,4v196.4c0,2,1.6,4,4,4h16.4c2,0,4-1.6,4-4V12.4c0-2-1.6-4-4-4H244.2z"
	/>
<g>
</g>
<g>
</g>
<g>
</g>
<g>
</g>
<g>
</g>
<g>
</g>
<g>
</g>
<g>
</g>
<g>
</g>
<g>
</g>
<g>
</g>
<g>
</g>
<g>
</g>
<g>
</g>
<g>
</g>
</svg>
