<?xml version="1.0" encoding="iso-8859-1"?>
<!-- Generator: Adobe Illustrator 19.0.0, SVG Export Plug-In . SVG Version: 6.00 Build 0)  -->
<svg version="1.1" id="Layer_1" xmlns="http://www.w3.org/2000/svg" xmlns:xlink="http://www.w3.org/1999/xlink" x="0px" y="0px"
	 viewBox="0 0 512 512" style="enable-background:new 0 0 512 512;" xml:space="preserve">
<g>
	<path style="fill:#174F79;" d="M400.448,106.789c3.219-1.838,4.774-5.761,3.503-9.384c-1.432-4.082-5.899-6.233-9.983-4.799
		l-15.881,5.569c-4.017,1.409-6.173,5.767-4.855,9.815l5.349,16.426c1.077,3.307,4.146,5.409,7.445,5.409
		c0.804,0,1.621-0.124,2.427-0.386c3.617-1.179,5.79-4.74,5.35-8.379c46.223,27.733,64.66,86.79,40.921,136.363
		c-1.868,3.901-0.22,8.578,3.681,10.446c1.091,0.522,2.243,0.77,3.377,0.77c2.921,0,5.723-1.642,7.069-4.452
		C476.348,206.767,454.558,138.261,400.448,106.789z"/>
	<path style="fill:#174F79;" d="M120.639,397.915l-2.317-17.119c-0.581-4.287-4.525-7.286-8.811-6.711
		c-3.771,0.511-6.546,3.625-6.766,7.285c-40.501-35.569-48.054-96.976-15.813-141.49c2.537-3.502,1.754-8.4-1.749-10.937
		s-8.4-1.754-10.937,1.749c-37.345,51.56-28.189,122.862,19.402,163.526c-3.496,1.231-5.729,4.812-5.128,8.604
		c0.61,3.856,3.94,6.608,7.725,6.608c0.407,0,0.82-0.031,1.234-0.097l16.622-2.631C118.306,406.035,121.21,402.134,120.639,397.915z
		"/>
</g>
<rect y="0.164" style="fill:#54CE8E;" width="327.678" height="193.39"/>
<circle style="fill:#FFD578;" cx="163.839" cy="96.861" r="67.206"/>
<g>
	<path style="fill:#2D774E;" d="M170.761,87.083V74.515h13.557c4.325,0,7.832-3.505,7.832-7.832s-3.507-7.832-7.832-7.832h-13.557
		v-3.939c0-4.326-3.507-7.832-7.832-7.832c-4.325,0-7.832,3.505-7.832,7.832v4.072c-10.985,1.184-19.568,10.507-19.568,21.801
		s8.582,20.616,19.568,21.801v12.675h-11.736c-4.325,0-7.832,3.505-7.832,7.832c0,4.326,3.507,7.832,7.832,7.832h11.736v5.63
		c0,4.326,3.507,7.832,7.832,7.832c4.325,0,7.832-3.505,7.832-7.832v-5.658c11.841-0.292,21.389-9.995,21.389-21.907
		C192.151,97.079,182.602,87.377,170.761,87.083z M151.193,80.785c0-2.621,1.616-4.867,3.904-5.804v11.607
		C152.811,85.653,151.193,83.405,151.193,80.785z M170.761,115.233v-12.487c3.203,0.278,5.725,2.969,5.725,6.242
		C176.486,112.263,173.964,114.956,170.761,115.233z"/>
	<path style="fill:#2D774E;" d="M327.687,0.164H0.006v29.489c77.804,0,260.637,0,327.681,0L327.687,0.164L327.687,0.164z"/>
	<path style="fill:#2D774E;" d="M0.006,164.068v29.489h327.681v-29.489C263.151,164.068,90.779,164.068,0.006,164.068z"/>
</g>
<rect x="184.316" y="318.446" style="fill:#54CE8E;" width="327.678" height="193.39"/>
<circle style="fill:#FFD578;" cx="348.155" cy="415.141" r="67.206"/>
<g>
	<path style="fill:#2D774E;" d="M368.975,440.601h-16.981c-9.776,0-18.386-5.068-23.357-12.71h30.881
		c4.325,0,7.832-3.505,7.832-7.832c0-4.326-3.507-7.832-7.832-7.832h-35.361c0.018-0.953,0.084-1.895,0.195-2.823h35.165
		c4.325,0,7.832-3.505,7.832-7.832s-3.507-7.832-7.832-7.832h-27.85c5.085-5.435,12.315-8.841,20.327-8.841h16.981
		c4.325,0,7.832-3.505,7.832-7.832s-3.507-7.832-7.832-7.832h-16.981c-17.181,0-32.065,10.011-39.133,24.505h-10.979
		c-4.325,0-7.832,3.505-7.832,7.832s3.507,7.832,7.832,7.832h6.74c-0.071,0.934-0.117,1.873-0.128,2.823h-6.613
		c-4.325,0-7.832,3.505-7.832,7.832c0,4.326,3.507,7.832,7.832,7.832h9.321c6.163,16.551,22.121,28.374,40.792,28.374h16.981
		c4.325,0,7.832-3.505,7.832-7.832C376.805,444.107,373.3,440.601,368.975,440.601z"/>
	<path style="fill:#2D774E;" d="M512,317.62H184.319v29.489c77.804,0,260.637,0,327.681,0V317.62z"/>
	<path style="fill:#2D774E;" d="M512,482.345H184.319v29.489c77.804,0,260.637,0,327.681,0V482.345z"/>
</g>
<g>
</g>
<g>
</g>
<g>
</g>
<g>
</g>
<g>
</g>
<g>
</g>
<g>
</g>
<g>
</g>
<g>
</g>
<g>
</g>
<g>
</g>
<g>
</g>
<g>
</g>
<g>
</g>
<g>
</g>
</svg>
